<svg xmlns="http://www.w3.org/2000/svg" viewBox="0 0 64 64" width="64" height="64">
<circle cx="32" cy="34" r="25" fill="#B8952F"/>
<circle cx="32" cy="34" r="22" fill="#E8C766"/>
<circle cx="32" cy="34" r="19" fill="#F0E7D3"/>
<path d="M13 28A19 19 0 0 1 45 20A19 19 0 0 0 17 45Z" fill="#F2EDE3" opacity=".55"/>
<g fill="#3A424A" opacity=".65" font-family="sans-serif">
<circle cx="32" cy="18.5" r="1.3"/><circle cx="47.5" cy="34" r="1.1"/>
<circle cx="32" cy="49.5" r="1.1"/><circle cx="16.5" cy="34" r="1.1"/></g>
<g stroke="#3A424A" stroke-width="1" opacity=".35">
<path d="M32 15v4"/><path d="M51 34h-4"/><path d="M32 53v-4"/><path d="M13 34h4"/></g>
<polygon points="32,17 36,34 32,31 28,34" fill="#7E2E2B"/>
<polygon points="32,17 36,34 32,31" fill="#B24A45"/>
<polygon points="32,51 28,34 32,37 36,34" fill="#7B848C"/>
<polygon points="32,51 28,34 32,37" fill="#B2B8BE"/>
<circle cx="32" cy="34" r="2.6" fill="#B8952F"/>
<circle cx="32" cy="34" r="1.2" fill="#3A424A"/>
<rect x="27" y="4" width="10" height="7" rx="2.4" fill="#B8952F"/>
<rect x="27" y="4" width="4.6" height="7" rx="2.3" fill="#E8C766"/>
<path d="M14 16A25 25 0 0 1 32 9" stroke="#F2EDE3" stroke-width="2" fill="none" opacity=".3"/></svg>