<svg xmlns="http://www.w3.org/2000/svg" viewBox="0 0 64 64" width="64" height="64">
<path d="M26 22H38V29L43 37V54A3 3 0 0 1 40 57H24A3 3 0 0 1 21 54V37L26 29Z"
 fill="#337395" opacity=".4"/>
<path d="M26 22H32V57H24A3 3 0 0 1 21 54V37L26 29Z" fill="#5AA5CC" opacity=".35"/>
<rect x="25" y="14" width="14" height="9" rx="2" fill="#5A432D"/>
<rect x="25" y="14" width="6" height="9" rx="2" fill="#8A6845"/>
<g transform="rotate(14 32 44)">
<rect x="25" y="36" width="14" height="17" rx="1.5" fill="#F0E7D3"/>
<g stroke="#B9A47E" stroke-width="1.3">
<path d="M28 41H36"/><path d="M28 45H36"/><path d="M28 49H33"/></g></g>
<path d="M21 37H43" stroke="#337395" stroke-width="1.6" opacity=".4"/></svg>